<svg xmlns="http://www.w3.org/2000/svg" width="190" height="38" viewBox="0 0 190 38" fill="none">
  <defs>
    <linearGradient id="orderTeal" x1="0" y1="0" x2="38" y2="38" gradientUnits="userSpaceOnUse">
      <stop stop-color="#28C7BD"/>
      <stop offset="1" stop-color="#1189A4"/>
    </linearGradient>
  </defs>

  <g transform="translate(0 0)" fill="url(#orderTeal)">
    <path d="M9 8.5C9 5.7 11.2 3.5 14 3.5H28.2C30.3 3.5 32 5.2 32 7.3V11.2H25.1C22.9 11.2 21.1 13 21.1 15.2V22.8C21.1 25 22.9 26.8 25.1 26.8H32V30.7C32 32.8 30.3 34.5 28.2 34.5H14C11.2 34.5 9 32.3 9 29.5V8.5Z"/>
    <path d="M24 15.4C24 14.5 24.7 13.8 25.6 13.8H32V24.2H25.6C24.7 24.2 24 23.5 24 22.6V15.4Z"/>
    <circle cx="28.7" cy="19" r="1.7" fill="#EAFBFA"/>
  </g>

  <g transform="translate(38 0)" fill="url(#orderTeal)">
    <path d="M9.8 7.5C9.8 5.3 11.6 3.5 13.8 3.5H27.2C29.4 3.5 31.2 5.3 31.2 7.5V17.3C29.4 16.2 27.3 15.6 25 15.6C18.9 15.6 13.9 20.5 13.9 26.7C13.9 29.5 14.9 32 16.6 33.9H13.8C11.6 33.9 9.8 32.1 9.8 29.9V7.5Z"/>
    <path d="M15.1 10.8C15.1 10 15.7 9.4 16.5 9.4H25.2C26 9.4 26.6 10 26.6 10.8C26.6 11.6 26 12.2 25.2 12.2H16.5C15.7 12.2 15.1 11.6 15.1 10.8Z" fill="#EAFBFA" opacity=".95"/>
    <path d="M15.1 15.8C15.1 15 15.7 14.4 16.5 14.4H21.4C22.2 14.4 22.8 15 22.8 15.8C22.8 16.6 22.2 17.2 21.4 17.2H16.5C15.7 17.2 15.1 16.6 15.1 15.8Z" fill="#EAFBFA" opacity=".95"/>
    <path d="M25 18.7C29.4 18.7 33 22.3 33 26.7C33 31.1 29.4 34.7 25 34.7C20.6 34.7 17 31.1 17 26.7C17 22.3 20.6 18.7 25 18.7ZM23.9 22.9V27.3C23.9 27.7 24.1 28.1 24.5 28.3L28 30.3C28.6 30.6 29.4 30.4 29.7 29.8C30.1 29.2 29.9 28.5 29.3 28.1L26.4 26.5V22.9C26.4 22.2 25.8 21.6 25.1 21.6C24.5 21.6 23.9 22.2 23.9 22.9Z"/>
  </g>

  <g transform="translate(76 0)" fill="url(#orderTeal)">
    <path d="M19 15.2C16.5 10 11 6.7 7.5 9.7C4.8 12 5.1 16.1 7.5 19C10.1 22.1 14.5 24.2 17.2 26.3V34.5H20.8V26.3C23.5 24.2 27.9 22.1 30.5 19C32.9 16.1 33.2 12 30.5 9.7C27 6.7 21.5 10 19 15.2Z"/>
    <path d="M7.6 21.8C8.2 21.2 9.2 21.3 9.7 22C11.5 24.2 14.3 25.9 16.1 27.2C16.5 27.5 16.8 28 16.8 28.5V33.2C12.1 31.4 8.4 27.7 7.1 23.4C6.9 22.8 7.1 22.2 7.6 21.8Z"/>
    <path d="M30.4 21.8C29.8 21.2 28.8 21.3 28.3 22C26.5 24.2 23.7 25.9 21.9 27.2C21.5 27.5 21.2 28 21.2 28.5V33.2C25.9 31.4 29.6 27.7 30.9 23.4C31.1 22.8 30.9 22.2 30.4 21.8Z"/>
  </g>

  <g transform="translate(114 0)" fill="url(#orderTeal)">
    <path d="M9.8 6.8C9.8 4.6 11.6 2.8 13.8 2.8H27.7C29.9 2.8 31.7 4.6 31.7 6.8V19.8L20.5 31H13.8C11.6 31 9.8 29.2 9.8 27V6.8Z"/>
    <path d="M15.2 9.8C15.2 9 15.8 8.4 16.6 8.4H25.4C26.2 8.4 26.8 9 26.8 9.8C26.8 10.6 26.2 11.2 25.4 11.2H16.6C15.8 11.2 15.2 10.6 15.2 9.8Z" fill="#EAFBFA" opacity=".95"/>
    <path d="M15.2 15.1C15.2 14.3 15.8 13.7 16.6 13.7H26.4C27.2 13.7 27.8 14.3 27.8 15.1C27.8 15.9 27.2 16.5 26.4 16.5H16.6C15.8 16.5 15.2 15.9 15.2 15.1Z" fill="#EAFBFA" opacity=".95"/>
    <path d="M15.2 20.4C15.2 19.6 15.8 19 16.6 19H23.2C24 19 24.6 19.6 24.6 20.4C24.6 21.2 24 21.8 23.2 21.8H16.6C15.8 21.8 15.2 21.2 15.2 20.4Z" fill="#EAFBFA" opacity=".95"/>
    <path d="M24 29.5L32.1 21.4C33.2 20.3 35 20.3 36.1 21.4C37.2 22.5 37.2 24.3 36.1 25.4L28 33.5L22.8 34.7L24 29.5Z"/>
  </g>

  <g transform="translate(152 0)" fill="url(#orderTeal)">
    <path d="M12 6.8C12 4.6 13.8 2.8 16 2.8H17.3V5.2C17.3 6.2 18.1 7 19.1 7H26.9C27.9 7 28.7 6.2 28.7 5.2V2.8H30C32.2 2.8 34 4.6 34 6.8V30.8C34 33 32.2 34.8 30 34.8H16C13.8 34.8 12 33 12 30.8V6.8Z"/>
    <path d="M20 2.2C20 1.5 20.5 1 21.2 1H24.8C25.5 1 26 1.5 26 2.2V3.9H20V2.2Z"/>
    <path d="M20.5 24.5C20.1 24.5 19.7 24.3 19.4 24L15.9 20.5C15.3 19.9 15.3 19 15.9 18.4C16.5 17.8 17.4 17.8 18 18.4L20.4 20.8L27.7 13.5C28.3 12.9 29.2 12.9 29.8 13.5C30.4 14.1 30.4 15 29.8 15.6L21.6 24C21.3 24.3 20.9 24.5 20.5 24.5Z" fill="#EAFBFA"/>
  </g>
</svg>
